<svg version="1.0" xmlns="http://www.w3.org/2000/svg"
 width="512.000000pt" height="512.000000pt" viewBox="0 0 512.000000 512.000000"
 preserveAspectRatio="xMidYMid meet">

<g transform="translate(0.000000,512.000000) scale(0.100000,-0.100000)"
fill="#DA6F5F" stroke="none">
<path d="M1445 4683 c-516 -31 -984 -325 -1245 -780 -208 -362 -255 -841 -123
-1233 78 -231 196 -426 367 -603 55 -58 67 -77 81 -128 38 -150 168 -263 316
-276 l57 -6 7 -58 c20 -169 166 -315 326 -327 l56 -4 12 -70 c28 -170 148
-291 315 -318 31 -5 60 -11 65 -14 5 -3 10 -29 13 -58 16 -191 215 -347 413
-323 91 12 165 54 267 154 l93 89 119 -115 c130 -125 181 -157 283 -173 153
-25 316 58 387 199 14 27 31 82 38 121 l12 70 36 0 c51 0 126 25 182 61 93 60
156 162 165 270 6 58 6 59 38 59 51 0 136 30 192 67 93 61 151 156 160 264 l6
57 58 7 c110 13 238 96 284 185 9 18 58 72 108 119 125 119 258 270 324 369
237 355 316 782 222 1206 -35 159 -130 386 -182 434 -52 49 -137 24 -156 -45
-10 -35 -7 -46 44 -153 66 -142 102 -260 122 -410 55 -409 -90 -833 -385
-1123 l-69 -69 -28 49 c-18 30 -222 243 -556 578 l-529 530 53 29 c70 39 344
309 352 347 13 56 -38 119 -96 119 -36 0 -61 -20 -196 -151 -109 -108 -143
-135 -206 -165 -97 -46 -157 -54 -415 -54 -165 0 -219 -3 -240 -14 -15 -8 -99
-87 -187 -176 -88 -89 -178 -171 -200 -182 -81 -43 -205 -19 -266 50 -43 48
-59 91 -59 154 1 101 10 113 428 529 213 212 421 411 462 441 274 202 591 293
929 266 166 -13 342 -63 493 -139 73 -37 121 -38 153 -3 33 35 40 76 20 113
-11 23 -38 43 -103 75 -526 264 -1186 195 -1639 -173 l-62 -50 -53 43 c-182
148 -412 257 -655 310 -71 16 -283 37 -333 34 -14 -1 -47 -3 -75 -5z m215
-204 c269 -24 529 -130 725 -293 l30 -25 -326 -328 c-188 -189 -337 -347 -351
-373 -46 -81 -61 -144 -56 -239 3 -70 10 -99 35 -152 105 -225 359 -316 582
-207 51 25 98 64 226 189 l161 158 218 2 218 2 560 -559 c307 -307 567 -572
576 -589 25 -47 20 -127 -11 -174 -29 -44 -96 -81 -145 -81 -72 0 -99 23 -532
455 -285 284 -434 426 -453 431 -60 14 -117 -35 -117 -103 0 -35 17 -54 429
-467 249 -250 435 -444 441 -461 41 -108 -27 -227 -139 -242 -85 -11 -88 -9
-541 443 -238 237 -438 428 -454 434 -63 23 -126 -25 -126 -97 0 -36 16 -54
424 -463 233 -234 431 -439 440 -457 24 -48 21 -118 -9 -169 -41 -69 -135
-102 -212 -74 -15 6 -129 111 -253 234 -365 361 -394 386 -435 386 -20 0 -47
-7 -60 -16 -28 -18 -49 -74 -40 -106 4 -13 141 -158 306 -323 302 -304 329
-337 329 -407 0 -76 -68 -157 -147 -173 -70 -14 -110 9 -241 139 l-123 122 12
67 c31 166 -49 325 -203 402 -39 19 -81 35 -93 35 -12 0 -36 3 -53 6 -29 6
-31 10 -42 73 -29 168 -147 285 -315 313 -71 12 -68 8 -80 96 -14 107 -117
233 -222 272 -32 12 -81 24 -109 27 l-51 6 -6 58 c-11 121 -99 243 -215 297
-49 23 -70 27 -152 27 -86 0 -101 -3 -160 -31 -71 -34 -227 -173 -296 -265
l-39 -51 -38 44 c-137 156 -247 376 -295 588 -53 231 -34 519 49 742 178 485
619 828 1129 877 123 12 124 12 250 0z m-520 -2119 c21 -11 49 -34 61 -52 31
-43 38 -132 14 -179 -23 -46 -201 -226 -247 -250 -104 -54 -236 11 -255 124
-12 78 1 102 125 230 64 66 131 126 147 133 44 19 110 17 155 -6z m387 -389
c59 -27 96 -86 96 -154 0 -29 -7 -66 -16 -82 -22 -42 -226 -242 -260 -254
-108 -41 -229 28 -244 137 -9 71 12 109 126 226 142 146 201 171 298 127z
m390 -390 c79 -36 120 -135 89 -215 -24 -64 -236 -270 -293 -285 -96 -26 -200
41 -218 140 -14 74 8 114 129 235 61 62 127 120 146 128 47 21 97 19 147 -3z
m414 -405 c42 -28 79 -96 79 -146 0 -59 -37 -114 -149 -223 -116 -114 -157
-135 -230 -122 -111 20 -179 154 -128 251 23 43 227 241 267 259 46 20 113 12
161 -19z"/>
<path d="M2254 1892 c-51 -41 -55 -109 -10 -151 67 -63 184 7 162 95 -16 64
-103 96 -152 56z"/>
<path d="M4570 4259 c-65 -26 -81 -110 -31 -160 38 -38 87 -39 129 -4 56 47
44 133 -22 160 -40 17 -42 17 -76 4z"/>
</g>
</svg>