<?xml version="1.0" standalone="no"?>
<!DOCTYPE svg PUBLIC "-//W3C//DTD SVG 20010904//EN"
 "http://www.w3.org/TR/2001/REC-SVG-20010904/DTD/svg10.dtd">
<svg version="1.0" xmlns="http://www.w3.org/2000/svg"
 width="512.000000pt" height="512.000000pt" viewBox="0 0 512.000000 512.000000"
 preserveAspectRatio="xMidYMid meet">

<g transform="translate(0.000000,512.000000) scale(0.100000,-0.100000)"
fill="#DA6F5F" stroke="none">
<path d="M570 5111 c-155 -48 -256 -209 -220 -351 6 -25 14 -54 16 -65 4 -16
-5 -25 -41 -44 -118 -62 -182 -216 -141 -340 9 -27 16 -52 16 -54 0 -3 -24
-19 -54 -35 -167 -95 -194 -328 -53 -464 l44 -43 -24 -50 c-56 -121 -15 -277
95 -359 l53 -39 -3 -427 -3 -426 -117 -195 c-64 -108 -122 -215 -128 -240 -7
-30 -10 -255 -8 -729 l3 -685 24 -45 c68 -130 207 -202 331 -170 25 6 54 14
65 16 16 4 25 -5 44 -41 62 -118 216 -182 340 -141 27 9 52 16 54 16 3 0 19
-24 35 -54 76 -133 244 -181 388 -111 30 15 68 44 85 65 l31 38 51 -24 c58
-27 159 -33 218 -12 54 18 116 65 149 113 l31 45 420 0 c393 0 422 -1 457 -19
20 -10 113 -64 206 -120 93 -56 186 -106 207 -111 25 -7 280 -10 726 -8 l688
3 50 27 c127 67 196 206 165 328 -6 25 -14 54 -16 65 -4 16 5 25 41 44 118 62
182 216 141 340 -9 27 -16 52 -16 54 0 3 24 19 54 35 167 95 194 328 53 464
l-44 43 24 50 c32 70 32 171 -1 242 -25 53 -93 128 -127 138 -18 6 -19 21 -19
431 0 398 1 427 19 462 10 20 64 113 120 206 56 93 106 186 111 207 7 25 10
280 8 726 l-3 688 -27 50 c-67 127 -206 196 -328 165 -25 -6 -54 -14 -65 -16
-16 -4 -25 5 -44 41 -62 118 -216 182 -340 141 -27 -9 -52 -16 -54 -16 -3 0
-19 24 -35 54 -95 167 -328 194 -464 53 l-43 -44 -50 24 c-56 26 -158 31 -216
11 -56 -19 -120 -68 -148 -114 l-26 -43 -420 0 c-487 -1 -412 -16 -669 138
-93 55 -185 105 -205 111 -42 12 -1372 12 -1411 1z m1567 -281 c112 -66 220
-124 244 -129 26 -6 215 -11 452 -11 l407 0 0 -376 0 -376 -38 31 c-21 16 -60
48 -87 70 -123 101 -297 94 -396 -16 -53 -58 -72 -117 -67 -202 l4 -71 -171 0
c-220 0 -226 -3 -390 -170 -66 -67 -267 -265 -447 -441 -314 -308 -328 -319
-365 -319 -21 0 -49 7 -62 16 -30 21 -51 71 -44 106 3 15 58 91 122 170 64 79
124 154 134 168 24 35 21 76 -8 105 l-24 25 -513 0 c-482 0 -516 2 -555 19
-97 45 -99 176 -3 226 24 12 79 15 290 15 l262 0 29 29 c36 36 37 70 5 108
l-24 28 -319 5 c-298 5 -320 6 -345 25 -88 65 -64 196 41 225 20 5 165 10 323
10 157 0 294 3 303 6 25 10 47 62 40 94 -14 62 -23 65 -287 70 l-240 5 -28 32
c-39 43 -47 91 -24 138 35 74 41 75 379 75 220 0 307 4 325 13 54 27 63 94 20
137 -19 19 -34 20 -235 20 -235 0 -264 5 -303 55 -49 62 -34 134 38 182 l33
23 662 0 662 0 200 -120z m1914 84 c16 -15 34 -44 39 -63 5 -20 10 -165 10
-323 0 -157 3 -294 6 -303 10 -25 62 -47 94 -40 62 14 65 23 70 287 l5 240 32
28 c43 39 91 47 138 24 74 -35 75 -41 75 -379 0 -220 4 -307 13 -325 27 -54
94 -63 137 -20 19 19 20 34 20 235 0 234 5 264 54 303 60 47 138 31 183 -37
l23 -34 0 -662 0 -662 -120 -200 c-66 -112 -124 -220 -129 -244 -6 -26 -11
-215 -11 -451 l0 -408 -376 0 -376 0 38 47 c21 27 51 64 67 82 101 118 92 292
-20 391 -59 52 -127 74 -209 67 l-64 -5 0 172 c0 159 -2 174 -24 221 -13 28
-51 77 -86 110 -34 33 -232 234 -441 447 -376 383 -379 386 -379 428 0 60 41
100 103 100 42 0 53 -6 188 -118 79 -65 155 -125 169 -135 35 -24 76 -21 105
8 l25 24 0 513 c0 482 2 516 19 555 45 97 176 99 226 3 12 -24 15 -79 15 -290
l0 -262 29 -29 c18 -17 40 -29 56 -29 16 0 38 12 56 29 l29 29 0 304 c0 275 2
307 18 337 40 74 135 91 193 35z m-863 -1734 l392 -398 -1 -228 -1 -229 -398
-392 -397 -393 -229 1 -229 1 -392 398 -393 397 1 229 1 229 398 393 398 392
228 -1 229 0 393 -399z m-2044 13 c-21 -27 -51 -63 -66 -81 -52 -61 -72 -111
-72 -187 -1 -118 62 -216 169 -261 25 -10 63 -14 114 -13 l76 2 5 -179 c4
-159 7 -183 27 -219 12 -22 81 -98 153 -170 72 -71 271 -272 441 -447 300
-307 309 -317 309 -356 0 -67 -60 -117 -127 -104 -12 2 -79 51 -150 109 -177
146 -202 163 -235 163 -17 0 -39 -10 -53 -25 l-25 -24 0 -510 c0 -568 0 -571
-65 -611 -43 -26 -104 -26 -139 1 -54 42 -56 56 -56 339 l0 262 -29 29 c-36
36 -70 37 -108 5 l-28 -24 -5 -321 -5 -321 -38 -37 c-33 -34 -43 -38 -87 -38
-40 0 -54 5 -79 29 -17 17 -36 46 -41 65 -5 20 -10 165 -10 323 0 157 -3 294
-6 303 -10 25 -62 47 -94 40 -62 -14 -65 -23 -70 -287 l-5 -240 -32 -28 c-43
-39 -91 -47 -138 -24 -74 35 -75 41 -75 379 0 220 -4 307 -13 325 -27 54 -94
63 -137 20 -19 -19 -20 -34 -20 -235 0 -234 -5 -264 -54 -303 -60 -47 -138
-31 -183 37 l-23 34 0 662 0 662 120 200 c66 112 124 220 129 244 6 26 11 215
11 452 l0 407 376 0 376 0 -38 -47z m2755 -909 c33 -24 52 -75 42 -112 -5 -17
-60 -92 -123 -169 -63 -76 -122 -149 -131 -163 -24 -35 -21 -77 8 -105 l24
-25 513 0 c482 0 516 -2 555 -19 97 -45 99 -176 3 -226 -24 -12 -79 -15 -290
-15 l-262 0 -29 -29 c-36 -36 -37 -70 -5 -108 l24 -28 319 -5 c298 -5 320 -6
345 -25 88 -65 64 -196 -41 -225 -20 -5 -165 -10 -323 -10 -157 0 -294 -3
-303 -6 -25 -10 -47 -62 -40 -94 14 -62 23 -65 287 -70 l240 -5 28 -32 c39
-43 47 -91 24 -138 -35 -74 -41 -75 -379 -75 -220 0 -307 -4 -325 -13 -54 -27
-63 -94 -20 -137 19 -19 34 -20 235 -20 234 0 264 -5 303 -54 47 -60 31 -138
-37 -183 l-34 -23 -662 0 -662 0 -200 120 c-112 66 -220 124 -244 129 -26 6
-215 11 -451 11 l-408 0 0 376 0 376 38 -31 c21 -16 60 -48 87 -70 152 -126
369 -81 445 92 16 37 21 65 19 120 l-2 72 179 5 c219 6 216 5 369 160 61 61
261 260 447 441 324 317 337 329 375 329 21 0 49 -7 62 -16z"/>
</g>
</svg>
